#define ship_crush3_width 20
#define ship_crush3_height 20
static unsigned char ship_crush3_bits[] = {
   0x00, 0x07, 0x00, 0x00, 0x07, 0x00, 0x0c, 0x02, 0x06, 0x06, 0x02, 0x04,
   0x86, 0x0f, 0x04, 0xf8, 0xeb, 0x00, 0x68, 0x94, 0x00, 0x30, 0x20, 0x00,
   0x18, 0x80, 0x00, 0x0c, 0x40, 0x01, 0x00, 0x00, 0x00, 0x00, 0x00, 0x00,
   0x3c, 0x18, 0x01, 0x3c, 0xa0, 0x01, 0x78, 0xff, 0x00, 0xf4, 0x7f, 0x02,
   0xe4, 0xbf, 0x01, 0x18, 0x00, 0x00, 0x01, 0x00, 0x0c, 0x0e, 0x00, 0x0e };
