#define ship_crush5_width 20
#define ship_crush5_height 20
static unsigned char ship_crush5_bits[] = {
   0x10, 0x00, 0x07, 0x03, 0x00, 0x00, 0x01, 0x00, 0x01, 0x01, 0x00, 0x01,
   0x02, 0x00, 0x00, 0x00, 0x00, 0x00, 0x00, 0x00, 0x00, 0x03, 0x00, 0x00,
   0x01, 0x00, 0x00, 0x04, 0x80, 0x01, 0x00, 0x00, 0x01, 0x00, 0x00, 0x01,
   0x04, 0x00, 0x01, 0x06, 0x00, 0x00, 0x06, 0x00, 0x00, 0x0c, 0x00, 0x00,
   0x00, 0x00, 0x01, 0x10, 0x80, 0x00, 0x00, 0x80, 0x00, 0xc0, 0xc1, 0x00 };
