#define ship_crush4_width 20
#define ship_crush4_height 20
static unsigned char ship_crush4_bits[] = {
   0x18, 0x37, 0x00, 0x00, 0x00, 0x00, 0x00, 0x00, 0x00, 0x00, 0x00, 0x04,
   0x02, 0x0e, 0x0c, 0xb8, 0xe8, 0x08, 0x48, 0x82, 0x00, 0x31, 0x20, 0x00,
   0x10, 0x80, 0x00, 0x04, 0x00, 0x01, 0x00, 0x00, 0x00, 0x00, 0x00, 0x00,
   0x0c, 0x08, 0x01, 0x0c, 0x88, 0x01, 0x18, 0x00, 0x00, 0x80, 0x20, 0x00,
   0xe4, 0x8f, 0x01, 0x00, 0x00, 0x00, 0x00, 0xe0, 0x00, 0x00, 0xf0, 0x00 };
