#define ship_crush2_width 20
#define ship_crush2_height 20
static unsigned char ship_crush2_bits[] = {
   0x00, 0x07, 0x00, 0x00, 0x07, 0x00, 0x00, 0x02, 0x00, 0x00, 0x02, 0x00,
   0x80, 0x0f, 0x00, 0xf8, 0xff, 0x00, 0xe8, 0xbf, 0x00, 0x30, 0x60, 0x00,
   0x18, 0xc0, 0x00, 0x1c, 0xc0, 0x01, 0x80, 0x00, 0x00, 0x04, 0x00, 0x00,
   0xfc, 0xff, 0x01, 0xfc, 0xff, 0x01, 0xf8, 0xff, 0x00, 0xf4, 0x7f, 0x02,
   0xe4, 0xbf, 0x01, 0x18, 0x00, 0x00, 0x00, 0x00, 0x00, 0x00, 0x00, 0x00 };
