#define landing15_width 20
#define landing15_height 20
static unsigned char landing15_bits[] = {
   0x00, 0x07, 0x00, 0x00, 0x07, 0x00, 0x00, 0x02, 0x00, 0x00, 0x02, 0x00,
   0x80, 0x0f, 0x00, 0xc0, 0x1f, 0x00, 0xe0, 0x3f, 0x00, 0x30, 0x60, 0x00,
   0x18, 0xc0, 0x00, 0x1c, 0xc0, 0x01, 0xfc, 0xff, 0x01, 0xec, 0xbf, 0x01,
   0x7c, 0xf0, 0x01, 0x7c, 0xf0, 0x01, 0x78, 0xf0, 0x00, 0x70, 0x72, 0x00,
   0x60, 0x37, 0x00, 0x90, 0x4a, 0x00, 0x88, 0x8d, 0x00, 0xbf, 0xc8, 0x0f };
