#define landing5_width 20
#define landing5_height 20
static unsigned char landing5_bits[] = {
   0x00, 0x07, 0x00, 0x00, 0x07, 0x00, 0x00, 0x02, 0x00, 0x00, 0x02, 0x00,
   0x80, 0x0f, 0x00, 0xc0, 0x1f, 0x00, 0xe0, 0x3f, 0x00, 0x30, 0x60, 0x00,
   0x18, 0xc0, 0x00, 0x1c, 0xc0, 0x01, 0xfc, 0xff, 0x01, 0xec, 0xbf, 0x01,
   0xfc, 0xfd, 0x01, 0xfc, 0xfd, 0x01, 0xf8, 0xfd, 0x00, 0xf0, 0x7d, 0x00,
   0xe0, 0x3f, 0x00, 0x10, 0x40, 0x00, 0x08, 0x80, 0x00, 0x3f, 0xc0, 0x0f };
