#define left1_width 20
#define left1_height 20
static unsigned char left1_bits[] = {
   0x80, 0x01, 0x00, 0xc0, 0x01, 0x00, 0x80, 0x00, 0x00, 0x00, 0x01, 0x00,
   0x80, 0x07, 0x00, 0xc0, 0x1f, 0x00, 0xe0, 0x3f, 0x00, 0x70, 0xe0, 0x00,
   0x10, 0xc0, 0x01, 0x18, 0xe0, 0x01, 0x18, 0xbf, 0x01, 0xfc, 0xff, 0x01,
   0xec, 0xff, 0x01, 0xf8, 0xff, 0x01, 0xf8, 0xff, 0x00, 0xf0, 0x7f, 0x00,
   0xe0, 0x1f, 0x00, 0x80, 0x00, 0x00, 0x00, 0x00, 0x00, 0x00, 0x00, 0x00 };
