#define left2_width 20
#define left2_height 20
static unsigned char left2_bits[] = {
   0x00, 0x00, 0x00, 0x20, 0x00, 0x00, 0x70, 0x00, 0x00, 0x20, 0x00, 0x00,
   0xc0, 0x01, 0x00, 0xc0, 0x1f, 0x00, 0xe0, 0xeb, 0x00, 0xe0, 0xe0, 0x01,
   0x30, 0xe0, 0x01, 0x30, 0xb8, 0x03, 0x10, 0xfe, 0x01, 0x18, 0xff, 0x01,
   0xf8, 0xff, 0x01, 0xd8, 0xff, 0x01, 0xf8, 0xff, 0x00, 0xf0, 0x3f, 0x00,
   0xe0, 0x1f, 0x00, 0x80, 0x03, 0x00, 0x00, 0x00, 0x00, 0x00, 0x00, 0x00 };
