#define right1_width 20
#define right1_height 20
static unsigned char right1_bits[] = {
   0x00, 0x0e, 0x00, 0x00, 0x0e, 0x00, 0x00, 0x04, 0x00, 0x00, 0x04, 0x00,
   0x00, 0x1f, 0x00, 0xc0, 0x1f, 0x00, 0x60, 0x3f, 0x00, 0x38, 0x60, 0x00,
   0x1c, 0x40, 0x00, 0x5c, 0xc0, 0x00, 0xec, 0xdf, 0x01, 0xfc, 0xff, 0x01,
   0xfc, 0xbf, 0x01, 0xfc, 0xff, 0x01, 0xf8, 0xff, 0x00, 0xf0, 0x7f, 0x00,
   0xc0, 0x3f, 0x00, 0x00, 0x00, 0x00, 0x00, 0x00, 0x00, 0x00, 0x00, 0x00 };
