#define right2_width 20
#define right2_height 20
static unsigned char right2_bits[] = {
   0x00, 0x00, 0x00, 0x00, 0x70, 0x00, 0x00, 0x60, 0x00, 0x00, 0x10, 0x00,
   0x00, 0x1f, 0x00, 0xe0, 0x3f, 0x00, 0x38, 0x3c, 0x00, 0x1c, 0x60, 0x00,
   0x2c, 0x40, 0x00, 0xec, 0x40, 0x00, 0xfc, 0xc7, 0x00, 0xfc, 0xdf, 0x00,
   0xf8, 0xff, 0x00, 0xf8, 0xdf, 0x00, 0xf8, 0x7f, 0x00, 0xc0, 0x7f, 0x00,
   0x00, 0x3f, 0x00, 0x00, 0x00, 0x00, 0x00, 0x00, 0x00, 0x00, 0x00, 0x00 };
